<svg width="157" height="30" viewBox="0 0 157 30" xmlns="http://www.w3.org/2000/svg"><title>PN logo header</title><path d="M89.675 5.102c-3.785 0-5.2 2.275-5.216 2.297l-.428.707V5.704h-6.354v18.008h6.353v-9.237c0-2.52.99-3.644 3.205-3.644 2.432 0 2.635 2.158 2.635 4.18v8.702h6.42v-11.11c0-4.907-2.287-7.5-6.615-7.5zm42.785 6.03c.965 0 1.697.152 2.082.256l.155-5.815c-.2-.054-.632-.137-1.37-.137-3.595 0-4.59 2.18-4.63 2.27l-.44 1.008v-3.01H121.9v18.008h6.356v-8.668c0-2.596 1.414-3.912 4.204-3.912zM70.338 1.555h-6.353v22.157h6.353V10.998h3.3l2.857-5.294h-6.157v-4.15zm42.695 13.188c0-2.46-1.595-4.113-3.97-4.113-2.397 0-4.006 1.653-4.006 4.113 0 2.325 1.685 4.01 4.005 4.01 2.338 0 3.97-1.648 3.97-4.01zm6.787-.2c0 6.726-5.453 9.737-10.858 9.737-4.9 0-10.625-2.47-10.625-9.438 0-6.727 5.454-9.74 10.858-9.74 5.29 0 10.625 2.92 10.625 9.44zm30.204.133c0-2.325-1.685-4.012-4.004-4.012-2.338 0-3.972 1.65-3.972 4.012 0 2.458 1.596 4.11 3.972 4.11 2.394 0 4.004-1.652 4.004-4.11zm6.14-14.644v23.68h-6.352v-2.277l-.415.564c-.017.022-1.744 2.314-5.458 2.314-5.178 0-8.657-3.873-8.657-9.638 0-5.528 3.85-9.54 9.156-9.54 3.353 0 4.96 1.65 4.975 1.667l.397.422V1.28l6.353-1.248zM55.27 12.394c-.3-.046-.577-.085-.832-.12-1.636-.233-2.537-.36-2.537-1.313 0-1.122 1.552-1.267 2.904-1.267 2.517 0 4.747.68 5.48.93l1.09-4.716c-.732-.186-3.297-.77-6.504-.77-6.158 0-9.69 2.293-9.69 6.293 0 3.203 2.033 4.774 7.014 5.425 2.27.302 3.307.44 3.307 1.5 0 1.155-1.443 1.302-2.7 1.302-2.91 0-5.63-1.014-6.458-1.352l-1.248 4.884c.76.24 3.602 1.058 7.104 1.058 6.558 0 10.023-2.178 10.023-6.294 0-2.77-1.16-4.664-6.95-5.56zm-18.107 2.35c0-2.46-1.595-4.114-3.97-4.114-2.395 0-4.005 1.653-4.005 4.113 0 2.325 1.684 4.01 4.004 4.01 2.34 0 3.97-1.648 3.97-4.01zm6.79-.202c0 6.727-5.456 9.738-10.86 9.738-4.9 0-10.625-2.47-10.625-9.438 0-6.727 5.453-9.74 10.86-9.74 5.287 0 10.624 2.92 10.624 9.44zm-29.836.2c0-2.46-1.595-4.112-3.97-4.112-2.396 0-4.005 1.653-4.005 4.113 0 2.325 1.685 4.01 4.004 4.01 2.34 0 3.97-1.648 3.97-4.01zm6.766 0c0 5.527-3.85 9.538-9.156 9.538-3.354 0-4.96-1.65-4.976-1.666l-.396-.422v6.84H0V5.704h6.354V7.98l.415-.562c.015-.022 1.757-2.316 5.458-2.316 5.177 0 8.655 3.874 8.655 9.64z" fill="#00a0d6" fill-rule="evenodd"/></svg>