<!DOCTYPE svg PUBLIC "-//W3C//DTD SVG 20010904//EN" "http://www.w3.org/TR/2001/REC-SVG-20010904/DTD/svg10.dtd">
<svg version="1.0" xmlns="http://www.w3.org/2000/svg" width="256px" height="128px" viewBox="0 0 2560 1280" preserveAspectRatio="xMidYMid meet">
<g id="layer101" fill="#0a0a0a" stroke="none">
 <path d="M330 995 l0 -35 849 0 c468 0 852 -3 854 -7 3 -5 -12 -53 -33 -108 l-38 -100 -90 -3 -90 -3 -28 81 -29 80 -38 0 c-27 0 -38 -4 -34 -12 2 -7 44 -127 93 -265 l88 -253 80 0 81 0 13 43 c8 23 50 137 94 252 44 116 93 245 109 288 l28 77 -954 0 -955 0 0 -35z m1584 -392 c-15 -38 -29 -77 -33 -87 -5 -11 -10 -15 -14 -9 -8 12 -57 148 -57 157 0 3 29 6 65 6 l64 0 -25 -67z"/>
 <path d="M529 887 c-86 -32 -141 -94 -185 -209 -22 -58 -26 -80 -21 -128 14 -132 88 -245 189 -291 l53 -24 835 0 835 0 3 37 3 38 -811 0 c-679 0 -816 2 -845 14 -127 53 -122 437 7 485 44 16 120 8 143 -15 11 -12 15 -38 15 -105 l0 -90 73 3 72 3 3 86 c3 80 1 89 -22 116 -41 49 -137 86 -231 90 -51 2 -93 -2 -116 -10z"/>
 <path d="M960 635 l0 -265 170 0 170 0 0 30 0 30 -95 0 -95 0 0 85 0 85 90 0 90 0 0 30 0 30 -90 0 -90 0 0 85 0 84 98 3 97 3 3 33 3 32 -175 0 -176 0 0 -265z"/>
 <path d="M1350 866 c0 -33 2 -35 37 -38 26 -2 42 -11 57 -31 19 -26 21 -44 24 -228 l4 -199 74 0 74 0 0 200 c0 215 -6 246 -51 286 -34 30 -83 44 -155 44 l-64 0 0 -34z"/>
 </g>

</svg>