<?xml version="1.0" standalone="no"?>
<!DOCTYPE svg PUBLIC "-//W3C//DTD SVG 20010904//EN"
 "http://www.w3.org/TR/2001/REC-SVG-20010904/DTD/svg10.dtd">
<svg version="1.0" xmlns="http://www.w3.org/2000/svg"
 width="640.000000pt" height="640.000000pt" viewBox="0 0 640.000000 640.000000"
 preserveAspectRatio="xMidYMid meet">
<metadata>
Created by potrace 1.11, written by Peter Selinger 2001-2013
</metadata>
<g transform="translate(0.000000,640.000000) scale(0.100000,-0.100000)"
fill="#000000" stroke="none">
<path d="M3037 6293 c-1 0 -52 -4 -113 -7 -61 -3 -126 -8 -145 -10 -19 -3 -77
-10 -129 -17 -52 -6 -104 -13 -115 -15 -11 -3 -36 -7 -55 -10 -91 -14 -378
-90 -490 -131 -147 -52 -396 -172 -493 -237 -38 -25 -73 -46 -78 -46 -5 0 -9
-4 -9 -10 0 -5 -7 -10 -15 -10 -8 0 -15 -4 -15 -9 0 -5 -13 -17 -29 -28 -121
-77 -321 -285 -425 -443 -27 -41 -58 -87 -68 -102 -10 -15 -18 -34 -18 -42 0
-8 -4 -16 -8 -18 -26 -11 -122 -274 -152 -419 -29 -138 -31 -153 -35 -339 -3
-153 -1 -172 25 -270 63 -245 151 -401 399 -714 25 -31 301 -307 351 -351 25
-22 70 -60 100 -85 29 -25 65 -54 78 -66 l25 -20 -59 -18 c-32 -10 -68 -21
-79 -26 -11 -4 -49 -18 -85 -30 -36 -11 -74 -25 -85 -30 -11 -5 -49 -21 -85
-36 -234 -95 -538 -285 -579 -362 -7 -14 -11 -39 -8 -56 3 -17 51 -125 107
-241 56 -115 129 -266 162 -335 33 -69 68 -133 76 -143 33 -38 162 -81 342
-113 125 -23 135 -24 245 -38 28 -4 68 -9 90 -12 22 -3 60 -7 85 -9 25 -2 68
-6 95 -9 28 -3 91 -8 140 -11 50 -3 113 -8 140 -10 51 -5 191 -11 490 -21 227
-7 978 -7 1185 0 251 9 376 15 470 22 47 3 110 7 140 9 134 9 228 18 335 31
66 8 89 11 160 19 33 4 63 8 66 11 3 2 25 6 49 9 23 3 71 12 105 20 35 8 74
16 86 19 46 8 154 49 182 68 19 14 52 70 104 176 42 87 77 159 78 162 0 3 42
90 93 194 51 104 92 200 92 213 0 40 -20 69 -87 123 -27 22 -166 116 -183 123
-8 4 -28 16 -45 27 -95 61 -322 160 -528 229 l-138 47 108 89 c267 222 567
555 684 761 30 53 111 217 113 229 1 6 12 39 24 75 12 36 23 76 26 90 3 14 9
48 15 75 10 49 9 354 -2 371 -2 5 -8 31 -11 58 -10 71 -34 168 -62 255 -32 95
-136 310 -177 366 -4 5 -35 48 -69 94 -63 86 -244 276 -307 321 -19 14 -39 30
-45 36 -22 20 -216 153 -216 147 0 -3 -8 1 -17 10 -18 15 -215 116 -303 155
-218 95 -525 182 -775 218 -16 3 -41 7 -53 10 -13 3 -52 7 -85 10 -34 3 -73 7
-87 10 -51 8 -496 24 -503 17z m57 -1276 c1 -583 -2 -1064 -6 -1070 -3 -6 -12
-12 -20 -13 -80 -14 -139 -34 -217 -74 l-38 -19 -23 82 c-12 45 -25 89 -28 97
-3 8 -6 22 -8 30 -2 9 -21 81 -44 160 -22 80 -42 152 -44 160 -28 111 -38 149
-46 170 -6 14 -12 36 -14 50 -3 14 -5 26 -5 28 -1 1 -1 3 0 5 0 1 -4 14 -10
30 -6 15 -13 38 -16 50 -6 28 -61 231 -76 277 -5 19 -12 42 -13 50 -2 8 -6 22
-9 30 -5 12 -43 150 -72 260 -2 8 -11 42 -20 75 -9 33 -18 65 -19 70 -1 6 -10
35 -18 65 -9 30 -29 100 -43 155 -42 156 -61 228 -69 251 -6 20 0 23 81 44
101 25 92 23 203 43 113 21 216 35 325 43 50 3 91 7 92 8 1 1 37 2 79 1 l78 0
0 -1058z m386 1049 c86 -7 226 -25 265 -32 11 -3 36 -7 55 -10 19 -3 53 -9 75
-14 22 -5 54 -11 71 -14 37 -7 207 -55 213 -61 3 -4 -30 -131 -85 -324 -13
-46 -26 -93 -29 -105 -2 -11 -11 -46 -20 -76 -24 -83 -65 -232 -70 -255 -3
-11 -21 -76 -40 -145 -43 -152 -44 -156 -49 -177 -3 -10 -30 -110 -61 -221
-31 -112 -58 -211 -60 -220 -4 -19 -59 -216 -77 -277 -6 -22 -12 -44 -14 -50
-1 -5 -7 -30 -14 -55 -7 -25 -13 -49 -14 -55 -2 -5 -10 -38 -20 -71 l-18 -62
-72 33 c-39 17 -93 38 -121 44 -27 7 -59 16 -70 20 -20 8 -20 17 -18 1052 0
574 2 1053 2 1065 1 22 20 23 171 10z m-1430 -256 c12 -41 23 -84 26 -95 6
-25 8 -29 23 -85 7 -25 15 -52 17 -60 4 -19 53 -197 88 -320 36 -132 147 -534
161 -590 2 -8 29 -105 60 -215 31 -110 57 -207 59 -215 12 -50 28 -108 36
-130 4 -14 32 -112 61 -218 l52 -192 -40 -58 c-44 -62 -93 -157 -93 -180 0
-32 -30 7 -74 95 -6 13 -14 23 -18 23 -5 0 -8 4 -8 9 0 4 -93 165 -207 357
-113 192 -211 358 -217 369 -6 11 -19 31 -27 45 -18 27 -136 227 -167 281 -11
19 -67 114 -126 213 -58 98 -106 182 -106 187 0 5 -4 9 -10 9 -5 0 -10 6 -10
14 0 7 -7 19 -15 26 -8 7 -13 16 -10 20 3 5 1 11 -4 14 -5 3 -46 70 -92 149
-45 78 -89 150 -97 159 -13 16 -9 22 38 65 70 64 150 126 235 181 102 68 362
198 413 208 8 1 16 5 20 8 8 9 9 7 32 -74z m2525 -35 c148 -73 284 -159 400
-253 124 -101 119 -92 86 -144 -25 -39 -268 -449 -472 -797 -44 -74 -79 -138
-79 -142 0 -5 -4 -9 -10 -9 -5 0 -12 -11 -16 -25 -3 -14 -10 -25 -15 -25 -5 0
-9 -5 -9 -10 0 -6 -16 -36 -35 -66 -19 -30 -35 -56 -35 -59 0 -2 -13 -24 -30
-48 -16 -25 -30 -48 -30 -51 0 -4 -17 -35 -39 -69 -21 -34 -71 -118 -112 -187
-40 -69 -77 -127 -81 -128 -4 -2 -6 -8 -2 -13 3 -5 0 -9 -5 -9 -6 0 -11 -4
-11 -9 0 -5 -38 -73 -84 -151 l-85 -142 -30 66 c-16 36 -49 93 -72 126 l-42
59 41 148 c23 82 62 222 87 313 26 91 48 172 50 180 4 19 18 69 95 350 18 63
37 133 42 155 5 22 12 47 15 55 3 8 7 20 9 27 1 6 30 112 64 235 91 332 101
368 105 386 6 24 84 305 90 319 5 15 32 5 210 -82z m-3401 -535 c22 -41 44
-80 64 -112 32 -51 325 -544 349 -588 8 -14 22 -37 31 -52 21 -33 137 -229
164 -278 11 -19 27 -43 36 -52 8 -10 12 -18 7 -18 -4 0 -1 -7 6 -16 7 -9 18
-25 24 -35 12 -23 154 -262 247 -417 37 -63 68 -116 68 -119 0 -4 11 -21 25
-38 13 -18 21 -35 18 -39 -4 -3 -1 -6 5 -6 7 0 12 -4 12 -8 0 -4 52 -95 115
-201 63 -106 115 -196 115 -200 0 -4 -6 -8 -12 -8 -7 0 -37 -4 -66 -7 -39 -6
-59 -4 -75 7 -12 8 -110 100 -217 205 -307 300 -806 787 -1117 1089 l-115 111
6 69 c3 37 10 95 17 128 14 76 13 72 28 125 7 25 12 45 11 45 -2 0 34 94 49
130 49 113 168 315 187 315 1 0 10 -13 18 -30z m4090 -15 c6 -11 16 -25 23
-32 34 -37 119 -200 173 -328 29 -69 67 -237 76 -333 l6 -73 -103 -101 c-57
-55 -248 -240 -423 -411 -176 -172 -396 -387 -490 -478 -94 -92 -232 -226
-306 -298 l-135 -132 -65 7 c-36 3 -69 10 -74 14 -5 5 0 21 11 37 11 15 22 33
24 38 3 9 112 192 140 235 45 72 219 374 219 381 0 5 4 9 9 9 5 0 11 8 15 18
3 9 10 24 15 32 31 45 121 202 121 210 0 4 4 10 8 12 4 2 25 32 45 68 20 36
48 83 61 105 13 22 66 112 118 200 52 88 152 257 223 375 70 118 136 229 145
246 10 17 37 62 59 99 23 37 41 69 41 72 0 11 36 52 44 50 5 -2 14 -12 20 -22z
m239 -1117 c-3 -13 -10 -29 -16 -35 -5 -7 -7 -13 -4 -13 10 0 -47 -120 -96
-203 -51 -86 -160 -235 -228 -312 -193 -219 -617 -590 -663 -580 -12 2 -49 10
-84 18 l-64 13 124 121 c135 134 215 211 618 603 149 146 304 297 344 337 39
40 72 72 73 73 0 0 -1 -10 -4 -22z m-4451 -135 c83 -82 197 -193 253 -248 486
-474 711 -693 727 -710 19 -20 19 -20 -44 -33 -35 -7 -72 -14 -83 -16 -25 -4
-48 12 -228 163 -351 292 -597 577 -718 830 -44 91 -71 161 -63 161 3 0 73
-66 156 -147z m2248 -250 c19 -4 37 -7 40 -7 21 -4 108 -41 121 -52 8 -8 21
-14 27 -14 23 0 148 -136 178 -195 75 -144 87 -309 32 -444 -6 -14 -12 -31
-13 -37 -2 -6 -19 -35 -40 -65 -196 -287 -582 -324 -825 -79 -137 138 -187
352 -126 538 84 251 344 403 606 355z m-720 -938 c183 -263 484 -380 800 -310
8 2 15 4 15 5 0 1 10 3 23 6 42 8 154 63 215 108 74 52 140 121 192 199 l38
57 46 -6 c25 -3 57 -7 71 -9 14 -2 50 -7 80 -10 30 -3 62 -8 70 -10 8 -3 34
-7 57 -10 23 -3 77 -12 120 -21 43 -8 87 -17 98 -19 21 -4 144 -32 180 -41 11
-3 27 -7 35 -9 8 -2 15 -4 15 -5 0 -1 11 -3 25 -6 14 -2 48 -12 75 -21 28 -9
57 -18 66 -20 57 -9 354 -131 469 -191 36 -19 77 -41 93 -49 39 -21 34 -30
-20 -38 -85 -12 -115 -17 -137 -21 -23 -5 -74 -13 -121 -19 -16 -2 -48 -6 -70
-9 -22 -3 -62 -8 -90 -11 -27 -3 -69 -7 -93 -10 -110 -12 -202 -20 -327 -30
-22 -1 -92 -6 -155 -10 -63 -4 -137 -9 -165 -10 -217 -14 -501 -19 -990 -19
-565 0 -854 8 -1150 29 -294 21 -440 34 -485 41 -19 3 -57 7 -85 9 -27 3 -63
7 -80 10 -16 2 -48 7 -70 10 -22 3 -49 7 -60 9 -12 2 -48 8 -80 12 -33 4 -62
9 -65 9 -3 1 -29 5 -58 10 -29 4 -51 12 -50 17 5 14 135 82 273 142 144 64
288 114 430 152 6 1 42 12 81 23 39 11 86 23 104 26 18 3 36 7 39 9 3 2 22 7
41 10 19 3 69 12 110 21 41 9 93 18 116 19 22 2 49 6 60 9 10 3 39 8 64 11 88
10 145 18 147 20 1 1 15 2 32 1 25 0 36 -10 71 -60z m-1555 -610 c11 -2 34 -6
50 -9 48 -8 225 -35 280 -41 28 -3 59 -8 70 -10 19 -4 99 -12 200 -21 28 -2
75 -6 105 -9 207 -21 497 -37 875 -51 181 -6 1011 -6 1185 0 226 8 416 17 480
21 36 3 103 7 150 10 84 5 139 10 263 21 34 3 82 7 107 9 25 2 63 6 85 9 22 2
67 7 100 11 33 4 80 10 105 15 24 5 47 7 51 5 3 -3 21 0 40 5 19 5 54 12 79
15 44 5 72 9 128 20 53 11 72 12 72 4 0 -14 -193 -404 -203 -411 -11 -7 -155
-44 -207 -53 -14 -3 -36 -7 -50 -10 -14 -2 -45 -7 -70 -10 -25 -3 -52 -8 -60
-10 -17 -4 -116 -16 -170 -20 -19 -1 -57 -5 -85 -9 -27 -4 -77 -8 -110 -11
-33 -2 -94 -7 -135 -10 -453 -35 -1705 -41 -2155 -10 -38 2 -110 7 -160 11
-153 10 -263 19 -350 30 -87 10 -130 16 -144 19 -9 1 -41 6 -71 10 -30 4 -62
9 -70 10 -97 20 -176 38 -216 50 l-49 15 -68 142 c-38 79 -82 169 -98 201 -36
73 -36 81 -1 72 15 -4 36 -9 47 -10z"/>
<path d="M3077 3608 c-144 -39 -252 -143 -285 -273 -38 -147 -19 -210 72 -239
27 -9 78 12 100 42 12 15 21 46 23 74 4 72 34 132 80 161 36 23 57 30 128 42
52 8 83 26 94 53 21 56 18 84 -16 122 -23 26 -37 32 -78 34 -28 1 -81 -6 -118
-16z"/>
</g>
</svg>
